<?xml version="1.0" standalone="no"?>
<!DOCTYPE svg PUBLIC "-//W3C//DTD SVG 20010904//EN"
 "http://www.w3.org/TR/2001/REC-SVG-20010904/DTD/svg10.dtd">
<svg version="1.0" xmlns="http://www.w3.org/2000/svg"
 width="510.000000pt" height="510.000000pt" viewBox="0 0 510.000000 510.000000"
 preserveAspectRatio="xMidYMid meet">
<metadata>
Created by potrace 1.11, written by Peter Selinger 2001-2013
</metadata>
<g transform="translate(0.000000,510.000000) scale(0.100000,-0.100000)"
fill="#000000" stroke="none">
<path d="M2290 5049 c-30 -4 -75 -9 -100 -12 -68 -9 -206 -36 -290 -58 -777
-204 -1418 -783 -1698 -1537 -40 -105 -98 -310 -108 -377 -3 -16 -9 -50 -14
-75 -39 -188 -46 -559 -13 -760 3 -19 6 -44 8 -55 31 -238 135 -547 267 -795
50 -94 176 -289 220 -342 13 -15 37 -44 53 -65 46 -58 112 -129 200 -214 76
-73 188 -169 198 -169 3 0 189 184 414 410 l409 410 78 -41 c131 -69 328 -128
476 -144 599 -62 1152 267 1390 827 16 38 27 68 23 68 -3 0 -1 6 4 13 14 17
41 126 57 227 14 84 15 355 2 410 -4 14 -9 41 -12 60 -3 19 -8 37 -10 39 -3 3
-201 -191 -442 -430 -247 -246 -459 -449 -488 -467 -222 -139 -514 -145 -733
-15 -128 76 -241 205 -294 337 l-23 55 -419 -419 c-231 -231 -423 -420 -427
-420 -10 0 -100 153 -152 259 -47 96 -116 295 -135 391 -16 79 -18 89 -26 150
-4 30 -9 64 -11 75 -12 58 -3 387 11 445 2 8 7 35 10 60 18 133 78 314 157
479 305 635 933 1037 1628 1044 252 3 415 -23 643 -101 l108 -36 240 240 240
240 -106 52 c-242 120 -517 200 -812 236 -114 14 -430 17 -523 5z"/>
<path d="M3644 4130 l-409 -409 -95 47 c-210 104 -393 143 -640 138 -138 -3
-183 -8 -275 -31 -406 -100 -732 -366 -909 -740 -31 -66 -71 -175 -81 -223 -3
-12 -7 -32 -11 -44 -17 -73 -32 -208 -32 -309 0 -96 17 -251 33 -295 2 -7 190
175 417 403 227 228 440 435 473 460 128 97 287 146 450 139 280 -13 544 -203
625 -450 l12 -39 422 422 c231 231 424 421 428 421 11 0 107 -165 155 -268 88
-187 152 -424 169 -622 11 -135 6 -340 -10 -427 -3 -11 -7 -38 -10 -59 -76
-479 -378 -943 -796 -1221 -166 -110 -379 -207 -549 -249 -58 -14 -153 -33
-191 -39 -25 -3 -58 -9 -75 -12 -64 -11 -315 -10 -415 3 -173 21 -229 34 -403
91 l-109 36 -239 -240 -240 -241 93 -45 c230 -111 408 -170 648 -215 161 -31
238 -37 460 -37 239 1 301 6 480 42 41 8 85 17 98 19 12 2 75 20 140 40 483
147 895 424 1215 819 310 384 495 839 543 1345 13 137 6 501 -11 553 -2 6 -6
30 -9 52 -28 229 -128 536 -249 766 -127 243 -232 389 -419 586 -70 74 -229
218 -259 233 -13 8 -94 -68 -425 -400z"/>
</g>
</svg>
